<?xml version="1.0" encoding="UTF-8" standalone="no"?>
<!-- Created with Inkscape (http://www.inkscape.org/) -->

<svg
   width="24"
   height="24"
   viewBox="0 0 24 24"
   version="1.1"
   id="svg1"
   inkscape:version="1.4.3 (0d15f75, 2025-12-25)"
   sodipodi:docname="icon_maximize_restore.svg"
   xmlns:inkscape="http://www.inkscape.org/namespaces/inkscape"
   xmlns:sodipodi="http://sodipodi.sourceforge.net/DTD/sodipodi-0.dtd"
   xmlns="http://www.w3.org/2000/svg"
   xmlns:svg="http://www.w3.org/2000/svg">
  <sodipodi:namedview
     id="namedview1"
     pagecolor="#ffffff"
     bordercolor="#000000"
     borderopacity="0.25"
     inkscape:showpageshadow="2"
     inkscape:pageopacity="0.0"
     inkscape:pagecheckerboard="true"
     inkscape:deskcolor="#d1d1d1"
     inkscape:document-units="px"
     showgrid="true"
     inkscape:zoom="32"
     inkscape:cx="11.53125"
     inkscape:cy="11.578125"
     inkscape:window-width="1920"
     inkscape:window-height="1017"
     inkscape:window-x="-8"
     inkscape:window-y="-8"
     inkscape:window-maximized="1"
     inkscape:current-layer="layer1">
    <inkscape:grid
       id="grid1"
       units="px"
       originx="0"
       originy="0"
       spacingx="1"
       spacingy="1"
       empcolor="#0099e5"
       empopacity="0.30196078"
       color="#0099e5"
       opacity="0.14901961"
       empspacing="4"
       enabled="true"
       visible="true"
       dotted="false"
       snapvisiblegridlinesonly="true" />
  </sodipodi:namedview>
  <defs
     id="defs1" />
  <g
     inkscape:label="图层 1"
     inkscape:groupmode="layer"
     id="layer1">
    <path
       d="m 9,9 v 2 h 5 c 0.554,0 1,0.446 1,1 v 1 h 2 V 11 C 17,9.892 16.108,9 15,9 Z"
       style="fill:#ffffff;stroke-width:2;stroke-linecap:round;stroke-linejoin:round;stroke-miterlimit:45;stroke-dashoffset:33.7;paint-order:stroke markers fill"
       id="path6" />
    <path
       d="m 17,15 h -2 c 0,0.554 -0.446,1 -1,1 H 7 C 6.446,16 6,15.554 6,15 V 12 C 6,11.446 6.446,11 7,11 V 9 H 6 C 4.892,9 4,9.892 4,11 v 5 c 0,1.108 0.892,2 2,2 h 9 c 1.108,0 2,-0.892 2,-2 z"
       style="fill:#ffffff;stroke-width:2;stroke-linecap:round;stroke-linejoin:round;stroke-miterlimit:45;stroke-dashoffset:33.7;paint-order:stroke markers fill"
       id="path3" />
    <path
       d="M 7,11 H 9 V 9 H 7 Z"
       style="fill:#ffffff;stroke-width:2;stroke-linecap:round;stroke-linejoin:round;stroke-miterlimit:45;stroke-dashoffset:33.7;paint-order:stroke markers fill"
       id="path5" />
    <path
       d="m 17,15 v -2 h -2 v 2 z"
       style="fill:#ffffff;stroke-width:2;stroke-linecap:round;stroke-linejoin:round;stroke-miterlimit:45;stroke-dashoffset:33.7;paint-order:stroke markers fill"
       id="path4" />
    <path
       d="M 9,6 C 7.892,6 7,6.892 7,8 V 9 H 9 C 9,8.446 9.446,8 10,8 h 7 c 0.554,0 1,0.446 1,1 v 3 c 0,0.554 -0.446,1 -1,1 v 2 h 1 c 1.108,0 2,-0.892 2,-2 V 8 C 20,6.892 19.108,6 18,6 Z"
       style="fill:#ffffff;stroke-width:2;stroke-linecap:round;stroke-linejoin:round;stroke-miterlimit:45;stroke-dashoffset:33.7;paint-order:stroke markers fill"
       id="path2" />
  </g>
</svg>
